PathFileType	4	(X/Y/Z)	Patient4_TMGait_0pt5_02_right_13.trc.trc
DataRate	CameraRate	NumFrames	NumMarkers	Units	OrigDataRate	OrigDataStartFrame	OrigNumFrames
76.086956521739	76.086956521739	4	33	mm	76.086956521739	18	       141
Frame#	Time	Sacral			L.Shoulder			Chest			R.Shoulder			Neck			R.ASIS			L.ASIS			R.Thigh.Superior			R.Thigh.Lateral			R.Thigh.Inferior			R.Patella			L.Thigh.Superior			L.Thigh.Lateral			L.Thigh.Inferior			L.Patella			L.Shank.Superior			L.Shank.Lateral			L.Shank.Inferior			R.Shank.Superior			R.Shank.Lateral			R.Shank.Inferior			R.Heel			R.Midfoot.Superior			R.Midfoot.Lateral			R.Toe			L.Heel			L.Midfoot.Lateral			L.Midfoot.Superior			L.Toe			L.Elbow			L.Wrist			R.Elbow			R.Wrist			
		X1	Y1	Z1	X2	Y2	Z2	X3	Y3	Z3	X4	Y4	Z4	X5	Y5	Z5	X6	Y6	Z6	X7	Y7	Z7	X8	Y8	Z8	X9	Y9	Z9	X10	Y10	Z10	X11	Y11	Z11	X12	Y12	Z12	X13	Y13	Z13	X14	Y14	Z14	X15	Y15	Z15	X16	Y16	Z16	X17	Y17	Z17	X18	Y18	Z18	X19	Y19	Z19	X20	Y20	Z20	X21	Y21	Z21	X22	Y22	Z22	X23	Y23	Z23	X24	Y24	Z24	X25	Y25	Z25	X26	Y26	Z26	X27	Y27	Z27	X28	Y28	Z28	X29	Y29	Z29	X30	Y30	Z30	X31	Y31	Z31	X32	Y32	Z32	X33	Y33	Z33	

18	17.233428571429	581.168268132833	1013.655415863048	437.043233932917	802.585465304955	1430.203718659442	270.620834912737	881.078032143377	1356.293229653543	442.689224148710	782.956094442942	1436.026811471024	606.061166310971	785.352311029331	1492.472628730652	420.379983425957	794.958316551544	940.254783308436	575.168521381080	805.438666207700	954.385676565087	300.368163768946	860.176264294116	760.384966874732	552.299888925859	805.633028936873	644.403998126023	624.172282488457	892.305353741991	598.928532471574	545.309722623508	921.408106318304	519.336957970498	561.573554566114	816.268542567156	732.997803434769	332.552729572161	711.475530160903	633.092747288312	266.548043712799	773.494778934513	543.664856609982	335.422924046721	759.976616660194	476.310107746441	346.095575120611	729.257799606664	408.701222903237	336.709335856722	632.740122825789	302.438309427487	281.759880207913	666.472566555001	188.632046649222	357.543692969414	909.321524558326	434.434140510783	572.497933267438	862.534259915744	319.835598079694	638.170010279148	934.650998738717	236.110329940921	585.849371411387	847.069940113374	49.404272946114	559.711764018020	1010.227802882128	120.099894610100	594.315897473937	933.811985885653	44.491403599448	630.581326429052	1136.225448789183	83.140699617257	617.654323317257	525.110762805091	39.114044376097	397.668463306063	600.409888061184	35.069274948174	318.444502122074	683.900153043155	94.923601394176	347.064421911497	812.265172123634	41.315888618838	320.873057235838	863.053469956823	1093.120331468591	129.570140600585	1094.697744327771	973.214857204040	137.061408647367	611.779507248534	1139.619521648687	714.171469224747	555.400690596303	887.352721834106	743.172129362252	
19	17.246571428571	583.282105045408	1012.494967525423	438.618292573656	804.018535666283	1429.423159528363	273.064757002233	882.376088161058	1355.594299213934	445.178859075134	783.821213742748	1435.089407880779	608.370555868032	786.294016761035	1491.500577030355	422.789167335768	796.658636064455	938.848591357581	577.195725998390	807.930091677412	953.574017360715	302.422075156763	860.152577755183	757.358099478750	554.710833244047	803.158297019672	641.542277727529	625.220178882192	889.760690725815	595.910538192627	546.484647812414	917.851070632061	517.425699361169	561.847602891040	816.347482719670	731.453560170042	334.665409658070	710.505462680463	632.651476444776	267.773976607064	770.941225650715	542.555831886891	336.773197590313	756.707148842196	475.237992244419	347.211958724434	725.489017146841	407.934671329073	337.596215404120	628.170071577491	302.542083064745	282.276972191162	660.660940953825	188.284741288521	357.877017240804	907.306116481908	432.381296287013	572.797488135836	861.984457740958	316.625096735986	637.474154074778	936.150279545369	234.435254725295	585.308761039579	851.939588710968	46.557331280240	557.834461025237	1014.057999538323	119.494402841094	593.679840498414	938.267156286261	43.078387786395	629.374544673391	1140.380239239539	84.023496985742	617.752494324482	518.463128427437	39.165525699277	397.521225099475	593.830030243450	35.058398871871	318.430494558373	677.322717623227	94.890585291223	347.099520016398	805.672286998096	41.100697596580	320.892319504576	863.307214860927	1092.086281652697	131.874490584338	1096.454842521302	975.517918287614	140.458502808149	611.603726553443	1139.304464977030	715.703691937574	554.916690931178	886.884751715368	743.498710403966	
20	17.259714285714	585.536411907195	1011.211395147011	440.526300417688	805.318902607575	1428.582624473704	275.688240425659	883.689422636078	1354.889646396776	447.811957304370	784.704026983446	1434.055051773661	610.897577991468	787.170058541578	1490.471005082955	425.391261420606	798.607781205210	937.388573781990	579.348147136866	810.512584977385	952.722719696720	304.630376293002	860.810963814081	754.692793969370	557.069841570077	801.532605342366	638.846332499238	626.083232511386	888.212875120164	593.321917973731	547.628942441589	915.177762839252	515.491420834367	562.142115562441	816.600563295378	729.861560752065	336.699919817305	709.587636752315	632.220757398428	269.126538018672	768.553034455914	541.434825838606	338.137541326355	753.654636021805	474.104208736457	348.359877282027	721.857477181253	407.151245739843	338.523721822459	623.624246480767	302.710452932913	282.853451077776	654.880877114909	187.955531212193	358.206654666637	905.568334053511	430.047937924152	572.960008599232	860.692455462939	313.560391423565	636.513795571445	936.056073740444	232.356479751978	584.511929401067	853.442593345453	44.460829809696	555.761680234201	1015.120042368226	118.126833955068	592.778503735193	939.242708708196	41.811796857958	628.019364707043	1141.320555146913	82.996169249284	617.626183099178	511.789685373561	39.225468720337	397.331550288254	587.255977166198	35.032974924166	318.400000791792	670.756287458428	94.864668998119	347.109327867311	799.100900434012	40.874085523288	320.900921588236	863.315941515639	1090.890308159450	134.442955271394	1097.516892480395	976.810751312306	144.107859651901	612.278736743045	1138.240955398413	717.367432717336	556.023171111359	885.450438449015	743.799804883341	
21	17.272857142857	587.895053016123	1009.849892249819	442.749428983417	806.507986353905	1427.702864918997	278.494439183509	885.031354990130	1354.190382536177	450.595042215238	785.620388001340	1432.941078500293	613.648124048420	788.018161320237	1489.413326875026	428.192393460770	800.778863264032	935.902348863488	581.619735529368	813.134187729610	951.860178321087	306.987068838237	862.139048234944	752.409934606092	559.360680488955	800.746724820119	636.369567226416	626.793491785138	887.659738419672	591.172701141826	548.778402273122	913.391842914220	513.556116624993	562.459152836802	817.054063253919	728.262511671142	338.607804794534	708.764721056889	631.805838563640	270.608295024428	766.435199642790	540.313780109944	339.503673731799	750.951510086155	472.893668504584	349.525253154058	718.458131663582	406.344234552159	339.490823233061	619.162666429728	302.969644391985	283.496429187175	649.182889667832	187.660985741253	358.529363426492	904.201460647324	427.507358272757	573.008878194006	858.907271203605	310.660948723293	635.414041016968	934.660184752002	229.900317319522	583.521179755219	851.974078996918	42.985313636075	553.661553149396	1013.802979221922	116.033954529112	591.647012028335	937.206541888429	40.635441107796	626.620301112979	1139.527627713731	80.211538053997	617.231868002113	505.095013846300	39.347811512007	397.099171888794	580.691394746552	35.013748277782	318.350629583240	664.226056520019	94.849859258710	347.085030670792	792.560767609810	40.631901708249	320.894347959168	863.080907772928	1089.554400176125	137.270206840001	1097.900210400794	977.065413297605	147.991312203186	613.797777432234	1136.463103970483	719.181904574835	558.712175331758	883.102394509746	744.101015530936	
